<svg width="31" height="31" viewBox="0 0 31 31" fill="none" xmlns="http://www.w3.org/2000/svg">
<path fill-rule="evenodd" clip-rule="evenodd" d="M15.5 0C6.94012 0 0 6.94012 0 15.5C0 24.0599 6.94012 31 15.5 31C24.0599 31 31 24.0599 31 15.5C31 6.94012 24.0599 0 15.5 0ZM22.6842 10.5413C22.4517 12.9916 21.4417 18.9397 20.9289 21.6845C20.7119 22.847 20.283 23.2358 19.8697 23.2732C18.9694 23.3559 18.2861 22.6778 17.4142 22.1069C16.0502 21.213 15.2791 20.6563 13.9552 19.7832C12.4245 18.7744 13.4165 18.2202 14.2884 17.3148C14.517 17.0771 18.4825 13.4695 18.56 13.1427C18.569 13.1014 18.5793 12.949 18.4876 12.8689C18.3959 12.7888 18.2629 12.8159 18.1673 12.8379C18.0304 12.8689 15.8513 14.3091 11.6289 17.1585C11.0102 17.5835 10.4496 17.7901 9.94713 17.7798C9.39429 17.7682 8.32996 17.4672 7.53817 17.2089C6.56812 16.8937 5.79571 16.7258 5.86287 16.191C5.89775 15.912 6.28137 15.6266 7.01504 15.3347C11.5333 13.3662 14.5467 12.068 16.0541 11.4403C20.3592 9.65004 21.2531 9.33875 21.8369 9.32842C22.568 9.31808 22.7437 9.92129 22.6842 10.5413Z" fill="white"/>
</svg>
