<svg width="31" height="31" viewBox="0 0 31 31" fill="none" xmlns="http://www.w3.org/2000/svg">
<path d="M28.8248 2.17517C26.6497 0 23.148 0 16.1458 0H14.8542C7.85204 0 4.35033 0 2.17517 2.17517C0 4.35033 0 7.85204 0 14.8542V16.1458C0 23.148 0 26.6484 2.17517 28.8248C4.35033 31.0013 7.85204 31 14.8542 31H16.1458C23.148 31 26.6484 31 28.8248 28.8248C31 26.6497 31 23.148 31 16.1458V14.8542C31 7.85204 31 4.35033 28.8248 2.17517ZM25.1914 21.9583H22.931C22.0694 21.9583 21.8162 21.2712 20.283 19.738C18.941 18.445 18.3662 18.2771 18.0317 18.2771C17.5757 18.2771 17.4401 18.4062 17.4401 19.0521V21.0787C17.4401 21.6341 17.2631 21.9583 15.8255 21.9583C13.4307 21.9583 10.7983 20.5039 8.92929 17.8224C6.12637 13.8945 5.36042 10.9249 5.36042 10.3269C5.36042 9.99104 5.48958 9.6875 6.13542 9.6875H8.39712C8.9745 9.6875 9.1915 9.94067 9.4085 10.5658C10.5142 13.786 12.3793 16.6005 13.1453 16.6005C13.432 16.6005 13.5638 16.4675 13.5638 15.739V12.4103C13.4798 10.8784 12.6648 10.7518 12.6648 10.2067C12.6648 9.95487 12.8805 9.6875 13.2396 9.6875H16.793C17.2722 9.6875 17.4388 9.94325 17.4388 10.518V14.9962C17.4388 15.4742 17.6467 15.6421 17.7901 15.6421C18.0782 15.6421 18.3171 15.4742 18.8441 14.9472C20.4729 13.1272 21.6225 10.3256 21.6225 10.3256C21.7672 9.98975 22.0307 9.68621 22.6068 9.68621H24.8672C25.5505 9.68621 25.6951 10.0375 25.5505 10.5168C25.2624 11.8342 22.5086 15.7131 22.5086 15.7131C22.2683 16.0968 22.1728 16.2879 22.5086 16.7193C22.7488 17.0552 23.538 17.7255 24.065 18.3481C25.0364 19.4409 25.7687 20.3618 25.9728 20.9973C26.1614 21.6354 25.8372 21.9583 25.1914 21.9583Z" fill="white"/>
</svg>
